<svg xmlns="http://www.w3.org/2000/svg" viewBox="0 -0.5 30 30" shape-rendering="crispEdges">
  <path stroke="#525252" d="M2 0h1m1 0h24M1 1h1m26 0h1M6 2h3m3 0h3m3 0h2m1 0h1m7 0h1m-4 1h1m2 0h1M2 4h1m26 0h1m-3 1h1m1 0h1m-3 1h1m1 0h1m-3 1h1m1 0h1m-3 1h1m1 0h1m-3 1h1m1 0h1m-3 1h1m1 0h1m-3 1h1m1 0h1m-3 1h1m1 0h1m-3 1h1m1 0h1M2 14h1m24 0h1m1 0h1m-3 1h1m1 0h1M2 16h1m24 0h1m1 0h1M2 17h1m24 0h1m1 0h1M2 18h1m24 0h1m1 0h1m-3 1h1m1 0h1m-3 1h1m1 0h1m-3 1h1m1 0h1m-3 1h1m1 0h1M2 23h1m24 0h1m1 0h1m-3 1h1m1 0h1m-1 1h1M3 26h1m22 0h1m2 0h1M5 27h6m7 0h3"/>
  <path stroke="#383838" d="M3 0h1M0 2h1m8 0h3m8 0h1m2 0h2M0 3h1M0 4h1M0 5h1M0 6h1M0 7h1M0 8h1M0 9h1m4 0h1m18 0h1M0 10h1m10 0h10M0 11h1m10 0h8M0 12h1m5 0h1m9 0h2m5 0h1M0 13h1m13 0h3M0 14h1m11 0h4m1 0h3M0 15h1m12 0h7M0 16h1m17 0h2M0 17h1m17 0h2M0 18h1m9 0h3m5 0h2M0 19h1m9 0h2m6 0h2M0 20h1m9 0h4m3 0h3M0 21h1m11 0h7M0 22h1m14 0h1M0 23h1m-1 1h1m-1 1h1m1 0h1m-3 1h1m-1 1h1m24 0h1m3 0h1M1 28h1m26 0h1M2 29h26"/>
  <path stroke="#a3a3a3" d="M2 1h1m24 0h1M3 2h1m22 0h1M2 3h1m24 0h1M6 10h1m2 0h1m13 0h1M9 11h1m9 1h1m-7 1h1m3 0h1m-8 1h1m-1 1h1m-1 1h1m1 0h6M1 17h1m18 0h1m-1 1h1M1 19h1m26 0h1M1 20h1m13 0h1m12 0h1M1 21h1m5 0h1m14 0h1m5 0h1m-17 1h1m5 0h1m9 0h1M1 24h1m26 0h1m-1 1h1M1 26h2m24 0h2M2 27h2m22 0h2M3 28h1m1 0h7m14 0h1"/>
  <path stroke="#ccc" d="M3 1h4m18 0h2M2 2h1m24 0h1M1 3h1m26 0h1M1 4h1m26 0h1M1 7h1M1 8h1M1 9h1m-1 2h1m-1 1h1m-1 1h1m26 0h1m-1 1h1M1 25h1m2 3h1m10 0h4m3 0h2"/>
  <path stroke="#e0e0e0" d="M7 1h5m1 0h1m9 0h2m3 4h1m-1 1h1m-1 4h1m-1 1h1m-1 1h1"/>
  <path stroke="#f5f5f5" d="M12 1h1m1 0h9M1 5h1M1 6h1m7 0h14m0 1h1"/>
  <path stroke="#7a7a7a" d="M1 2h1m2 0h2m19 0h1m2 0h1M3 3h1m23 1h1M2 5h1M2 6h1M2 7h1M2 8h1"/>
  <path stroke="#666" d="M15 2h3m4 0h1M2 9h1m-1 1h1m7 0h1m-9 1h1m3 0h1m3 0h1m12 0h1M2 12h1m12 0h1M2 13h1m8 1h1m4 0h1m3 0h1M2 15h1m8 0h2m-2 1h1M2 19h1m9 0h1M2 20h1m11 0h1m1 0h1M2 21h1m-1 1h1m4 0h1m5 0h2m1 0h2m4 0h1M9 23h1m10 0h1M2 24h1m9 1h1m4 0h1m9 0h1M1 27h1m2 0h1m6 0h7m3 0h4m3 0h1M2 28h1m24 0h1"/>
  <path stroke="#bfb5cf" d="M4 3h22M3 5h1m22 0h1m-1 1h1M3 25h1m22 0h1m-2 1h1"/>
  <path stroke="#aa9cbf" d="M3 4h3m17 0h4M4 5h1m20 0h1M3 6h1M3 7h1m22 0h1M3 23h1m-1 1h1m22 0h1M4 25h1m20 0h1M4 26h2m17 0h2"/>
  <path stroke="#9584ae" d="M6 4h17M5 5h1m18 0h1M4 6h1m20 0h1M4 7h1m20 0h1M3 8h2m20 0h2M3 9h2m20 0h2M3 10h2m20 0h2M3 11h3m18 0h3M3 12h3m18 0h3M3 13h3m18 0h3M3 14h3m18 0h3M3 15h3m18 0h3M3 16h3m18 0h3M3 17h3m18 0h3M3 18h3m18 0h3M3 19h3m18 0h3M3 20h3m18 0h3M3 21h3m18 0h3M3 22h3m18 0h3M4 23h3m16 0h4M4 24h5m12 0h5M5 25h6m8 0h6M6 26h6m6 0h5"/>
  <path stroke="#000" d="M6 5h18M5 6h1m18 0h1M5 7h1m18 0h1M5 8h1m18 0h1M6 13h1m16 0h1M6 14h1m16 0h1M6 15h1m16 0h1M6 16h1m16 0h1M6 17h1m16 0h1M6 18h1m16 0h1M6 19h1m16 0h1M6 20h1m16 0h1M6 21h1m16 0h1M6 22h1m16 0h1M8 23h1m12 0h1m-12 1h2m6 0h2m-6 1h2"/>
  <path stroke="#e5e3e8" d="M6 6h3m14 0h1M6 7h17M6 8h18M6 9h18M7 10h2m12 0h2M7 11h2m12 0h2M7 12h8m5 0h3M7 13h6m5 0h5M7 14h3m11 0h2M7 15h3m11 0h2M7 16h3m11 0h2M7 17h11m3 0h2M7 18h3m3 0h5m3 0h2M7 19h3m3 0h5m2 0h3M7 20h3m10 0h3M8 21h3m9 0h2M9 22h3m7 0h2m-11 1h10m-8 1h6"/>
  <path stroke="#fff" d="M28 7h1m-1 1h1m-1 1h1"/>
  <path stroke="#b8b8b8" d="M1 10h1m-1 4h1m-1 1h1m26 0h1M1 16h1m26 0h1m-1 1h1M1 18h1m26 0h1M12 28h3m4 0h3m2 0h2"/>
  <path stroke="#707070" d="M5 10h1m18 0h1m-6 1h2m-3 1h1m1 3h1m-1 1h1m-10 5h1m7 0h1M8 22h1m12 0h1m-9 3h1m2 0h1"/>
  <path stroke="#8f8f8f" d="M1 22h1m-1 1h1m26 0h1"/>
  <path stroke="#6d627f" d="M7 23h1m14 0h1M9 24h1m10 0h1m-10 1h1m6 0h1m-7 1h6"/>
</svg>