<svg xmlns="http://www.w3.org/2000/svg" viewBox="0 -0.5 30 30" shape-rendering="crispEdges">
  <path stroke="#525252" d="M2 0h1m1 0h24M1 1h1m26 0h1M6 2h3m3 0h3m3 0h2m1 0h1m7 0h1m-4 1h1m2 0h1M2 4h1m26 0h1m-3 1h1m1 0h1m-3 1h1m1 0h1m-3 1h1m1 0h1m-3 1h1m1 0h1m-3 1h1m1 0h1m-3 1h1m1 0h1m-3 1h1m1 0h1m-3 1h1m1 0h1m-3 1h1m1 0h1M2 14h1m24 0h1m1 0h1m-3 1h1m1 0h1M2 16h1m24 0h1m1 0h1M2 17h1m24 0h1m1 0h1M2 18h1m24 0h1m1 0h1m-3 1h1m1 0h1m-3 1h1m1 0h1m-3 1h1m1 0h1m-3 1h1m1 0h1M2 23h1m24 0h1m1 0h1m-3 1h1m1 0h1m-1 1h1M3 26h1m22 0h1m2 0h1M5 27h6m7 0h3"/>
  <path stroke="#383838" d="M3 0h1M0 2h1m8 0h3m8 0h1m2 0h2M0 3h1M0 4h1M0 5h1M0 6h1M0 7h1M0 8h1m12 0h1M0 9h1m12 0h2M0 10h1m13 0h2M0 11h1m13 0h3M0 12h1m14 0h1m1 0h1M0 13h1m14 0h1m1 0h2M0 14h1m3 0h1m10 0h1m2 0h2m5 0h1M0 15h1m14 0h1m2 0h3M0 16h1m14 0h1m3 0h1m5 0h1M0 17h1m14 0h1M0 18h1m14 0h1M0 19h1m13 0h3M0 20h1m14 0h1M0 21h1m-1 1h1m-1 1h1m-1 1h1m-1 1h1m1 0h1m11 0h1m1 0h1M0 26h1m-1 1h1m24 0h1m3 0h1M1 28h1m26 0h1M2 29h26"/>
  <path stroke="#a3a3a3" d="M2 1h1m24 0h1M3 2h1m22 0h1M2 3h1m24 0h1M1 17h1m-1 2h1m26 0h1M1 20h1m26 0h1M1 21h1m26 0h1m-1 1h1M1 24h1m26 0h1m-1 1h1M1 26h2m24 0h2M2 27h2m22 0h2M3 28h1m1 0h7m14 0h1"/>
  <path stroke="#ccc" d="M3 1h4m18 0h2M2 2h1m24 0h1M1 3h1m26 0h1M1 4h1m26 0h1M1 7h1M1 8h1M1 9h1m-1 2h1m-1 1h1m-1 1h1m26 0h1m-1 1h1M1 25h1m2 3h1m10 0h4m3 0h2"/>
  <path stroke="#e0e0e0" d="M7 1h5m1 0h1m9 0h2m3 4h1m-1 1h1m-1 4h1m-1 1h1m-1 1h1"/>
  <path stroke="#f5f5f5" d="M12 1h1m1 0h9M1 5h1m12 0h2M1 6h1m11 0h1m2 0h1m0 1h1m0 1h1m0 1h1m0 1h1"/>
  <path stroke="#7a7a7a" d="M1 2h1m2 0h2m19 0h1m2 0h1M3 3h1m23 1h1M2 5h1M2 6h1M2 7h1M2 8h1"/>
  <path stroke="#666" d="M15 2h3m4 0h1M12 8h1M2 9h1m-1 1h1m13 0h1M2 11h1m-1 1h1m11 0h1m1 0h1M2 13h1m17 1h1M2 15h1m15 1h1m1 0h1m-7 2h1m1 0h1M2 19h1m-1 1h1m11 0h1m1 0h1M2 21h1m-1 1h1m-1 2h1m24 1h1M1 27h1m2 0h1m6 0h7m3 0h4m3 0h1M2 28h1m24 0h1"/>
  <path stroke="#bfb5cf" d="M4 3h22M3 5h1m22 0h1m-1 1h1M3 25h1m22 0h1m-2 1h1"/>
  <path stroke="#aa9cbf" d="M3 4h3m17 0h4M4 5h1m20 0h1M3 6h1M3 7h1m22 0h1M3 23h1m-1 1h1m22 0h1M4 25h1m20 0h1M4 26h2m17 0h2"/>
  <path stroke="#9584ae" d="M6 4h8m2 0h7M5 5h8m4 0h8M4 6h8m6 0h8M4 7h7m8 0h7M3 8h7m10 0h7M3 9h6m12 0h6M3 10h5m14 0h5M3 11h4m16 0h4M3 12h3m18 0h3M3 13h2m20 0h2M3 14h1m22 0h1M3 15h1m22 0h1M3 16h1m22 0h1M3 17h2m20 0h2M3 18h3m18 0h3M3 19h4m16 0h4M3 20h5m14 0h5M3 21h5m13 0h6M3 22h6m11 0h7M4 23h6m10 0h7M4 24h7m8 0h7M5 25h7m6 0h7M6 26h8m3 0h6"/>
  <path stroke="#000" d="M14 4h2m-3 1h1m2 0h1m-5 1h1m4 0h1m-7 1h1m6 0h1m-9 1h1m8 0h1M9 9h1m10 0h1M8 10h1m12 0h1M7 11h1m14 0h1M6 12h1m16 0h1M5 13h1m18 0h1M4 15h1m20 0h1M4 16h1m0 1h1m18 0h1M6 18h1m16 0h1M7 19h1m14 0h1M8 20h1m12 0h1M9 21h1m10 0h1m-11 1h1m8 0h1m-9 1h1m6 0h1m-7 1h1m4 0h1m-3 1h1"/>
  <path stroke="#e5e3e8" d="M14 6h2m-3 1h4m-6 1h1m2 0h4m-8 1h3m2 0h4M9 10h5m3 0h3M8 11h6m3 0h5M7 12h7m4 0h5M6 13h9m1 0h1m2 0h5M5 14h10m1 0h2m3 0h4M5 15h10m1 0h2m3 0h4M5 16h10m1 0h2m3 0h4M6 17h9m1 0h8M7 18h7m3 0h6M8 19h6m3 0h5m-12 1h4m3 0h4m-11 1h10m-9 1h8m-7 1h6m-5 1h4"/>
  <path stroke="#707070" d="M12 7h1"/>
  <path stroke="#fff" d="M28 7h1m-1 1h1m-1 1h1"/>
  <path stroke="#b8b8b8" d="M1 10h1m-1 4h1m-1 1h1m26 0h1M1 16h1m26 0h1m-1 1h1M1 18h1m26 0h1M12 28h3m4 0h3m2 0h2"/>
  <path stroke="#f6f6f7" d="M9 20h1"/>
  <path stroke="#6d627f" d="M8 21h1m0 1h1m0 1h1m8 0h1m-9 1h1m6 0h1m-7 1h2m3 0h1m-4 1h3"/>
  <path stroke="#8f8f8f" d="M1 22h1m-1 1h1m26 0h1"/>
</svg>