<svg xmlns="http://www.w3.org/2000/svg" viewBox="0 -0.5 30 30" shape-rendering="crispEdges">
  <path stroke="#525252" d="M2 0h1m1 0h24M1 1h1m26 0h1M6 2h3m3 0h3m3 0h2m1 0h1m7 0h1m-4 1h1m2 0h1M2 4h1m26 0h1m-3 1h1m1 0h1m-3 1h1m1 0h1m-3 1h1m1 0h1m-3 1h1m1 0h1m-3 1h1m1 0h1m-3 1h1m1 0h1m-3 1h1m1 0h1m-3 1h1m1 0h1m-3 1h1m1 0h1M2 14h1m24 0h1m1 0h1m-3 1h1m1 0h1M2 16h1m24 0h1m1 0h1M2 17h1m24 0h1m1 0h1M2 18h1m24 0h1m1 0h1m-3 1h1m1 0h1m-3 1h1m1 0h1m-3 1h1m1 0h1m-3 1h1m1 0h1M2 23h1m24 0h1m1 0h1m-3 1h1m1 0h1m-1 1h1M3 26h1m22 0h1m2 0h1M5 27h6m7 0h3"/>
  <path stroke="#383838" d="M3 0h1M0 2h1m8 0h3m8 0h1m2 0h2M0 3h1M0 4h1M0 5h1M0 6h1M0 7h1M0 8h1M0 9h1m-1 1h1m-1 1h1m-1 1h1m-1 1h1m-1 1h1m-1 1h1m-1 1h1m-1 1h1m-1 1h1m-1 1h1m-1 1h1m-1 1h1m-1 1h1m-1 1h1m-1 1h1m-1 1h1m1 0h1m-3 1h1m-1 1h1m24 0h1m3 0h1M1 28h1m26 0h1M2 29h26"/>
  <path stroke="#a3a3a3" d="M2 1h1m24 0h1M3 2h1m22 0h1M2 3h1m24 0h1M1 17h1m-1 2h1m26 0h1M1 20h1m26 0h1M1 21h1m26 0h1m-1 1h1M1 24h1m26 0h1m-1 1h1M1 26h2m24 0h2M2 27h2m22 0h2M3 28h1m1 0h7m14 0h1"/>
  <path stroke="#ccc" d="M3 1h4m18 0h2M2 2h1m24 0h1M1 3h1m26 0h1M1 4h1m26 0h1M1 7h1M1 8h1M1 9h1m-1 2h1m-1 1h1m-1 1h1m26 0h1m-1 1h1M1 25h1m2 3h1m10 0h4m3 0h2"/>
  <path stroke="#e0e0e0" d="M7 1h5m1 0h1m9 0h2m3 4h1m-1 1h1m-1 4h1m-1 1h1m-1 1h1"/>
  <path stroke="#f5f5f5" d="M12 1h1m1 0h9M1 5h1M1 6h1m7 0h4m4 0h6m0 1h1"/>
  <path stroke="#7a7a7a" d="M1 2h1m2 0h2m19 0h1m2 0h1M3 3h1m23 1h1M2 5h1M2 6h1M2 7h1M2 8h1"/>
  <path stroke="#666" d="M15 2h3m4 0h1M2 9h1m-1 1h1m-1 1h1m-1 1h1m-1 1h1m-1 2h1m-1 4h1m-1 1h1m-1 1h1m-1 1h1m-1 2h1m24 1h1M1 27h1m2 0h1m6 0h7m3 0h4m3 0h1M2 28h1m24 0h1"/>
  <path stroke="#bfb5cf" d="M4 3h22M3 5h1m22 0h1m-1 1h1M3 25h1m22 0h1m-2 1h1"/>
  <path stroke="#aa9cbf" d="M3 4h3m17 0h4M4 5h1m20 0h1M3 6h1M3 7h1m22 0h1M3 23h1m-1 1h1m22 0h1M4 25h1m20 0h1M4 26h2m17 0h2"/>
  <path stroke="#9584ae" d="M6 4h17M5 5h1m18 0h1M4 6h1m20 0h1M4 7h1m20 0h1M3 8h2m20 0h2M3 9h2m20 0h2M3 10h2m20 0h2M3 11h2m20 0h2M3 12h2m20 0h2M3 13h2m20 0h2M3 14h2m20 0h2M3 15h2m20 0h2M3 16h2m20 0h2M3 17h2m20 0h2M3 18h2m20 0h2M3 19h2m20 0h2M3 20h2m20 0h2M3 21h2m20 0h2M3 22h2m20 0h2M4 23h1m20 0h2M4 24h1m20 0h1M5 25h1m18 0h1M6 26h2"/>
  <path stroke="#000" d="M6 5h18M5 6h1m18 0h1M5 7h1m18 0h1M5 8h1m18 0h1M5 9h1m18 0h1M5 10h1m18 0h1M5 11h1m18 0h1M5 12h1m18 0h1M5 13h1m18 0h1M5 14h1m18 0h1M5 15h1m18 0h1M5 16h1m18 0h1M5 17h1m18 0h1M5 18h1m18 0h1M5 19h1m18 0h1M5 20h1m18 0h1M5 21h1m18 0h1M5 22h1m18 0h1M5 23h1m18 0h1M5 24h1m18 0h1M6 25h18"/>
  <path stroke="#e5e3e8" d="M6 6h3m4 0h1m2 0h1m6 0h1M6 7h7m4 0h6M6 8h6m6 0h6M6 9h6m6 0h6M6 10h6m6 0h6M6 11h6m6 0h6M6 12h7m5 0h6M6 13h6m7 0h5M6 14h5m9 0h4M6 15h5m9 0h4M6 16h4m11 0h3M6 17h4m11 0h3M6 18h3m12 0h3M6 19h3m12 0h3M6 20h1m15 0h2M6 21h1m16 0h1M6 22h1m16 0h1M6 23h1m14 0h3M6 24h4m3 0h5m2 0h4"/>
  <path stroke="#050507" d="M14 6h2m-3 1h3m-4 1h6m-6 1h1m1 0h1m2 0h1m-6 1h2m1 0h1m1 0h1m-6 1h1m4 0h1m-6 2h1m4 0h2m-8 1h1m5 0h3m-9 1h1m6 0h2m-2 1h1m1 0h1m-2 1h2M9 18h1m1 1h1m7 0h2m-9 1h1m-1 1h1m3 1h1m-4 1h4"/>
  <path stroke="#7d7d7d" d="M16 7h1"/>
  <path stroke="#fff" d="M28 7h1m-1 1h1m-1 1h1"/>
  <path stroke="#c3c3c2" d="M13 9h1"/>
  <path stroke="#fffffd" d="M15 9h1m0 1h1"/>
  <path stroke="#575758" d="M16 9h1"/>
  <path stroke="#b8b8b8" d="M1 10h1m-1 4h1m-1 1h1m26 0h1M1 16h1m26 0h1m-1 1h1M1 18h1m26 0h1M12 28h3m4 0h3m2 0h2"/>
  <path stroke="#4f4514" d="M14 10h1"/>
  <path stroke="#dea825" d="M13 11h1"/>
  <path stroke="#f2d434" d="M14 11h1"/>
  <path stroke="#f6d815" d="M15 11h1"/>
  <path stroke="#ecbf2c" d="M16 11h1"/>
  <path stroke="#9d6b28" d="M13 12h1"/>
  <path stroke="#866c21" d="M14 12h1"/>
  <path stroke="#d59b28" d="M15 12h1"/>
  <path stroke="#bcbcbb" d="M16 12h1m-4 1h2"/>
  <path stroke="#838385" d="M17 12h1"/>
  <path stroke="#dddedc" d="M15 13h1m-4 2h1"/>
  <path stroke="#fdfefc" d="M16 13h1m-5 1h5m-4 1h3m1 0h1m-6 1h6m-7 1h8m-8 1h8m-7 1h6m-5 1h4m-4 1h4m-4 1h3"/>
  <path stroke="#cacac9" d="M16 15h1"/>
  <path stroke="#3d3d3f" d="M10 16h1"/>
  <path stroke="#1e1e1f" d="M11 16h1"/>
  <path stroke="#535355" d="M19 16h1"/>
  <path stroke="#151517" d="M10 17h1"/>
  <path stroke="#3c3c3d" d="M10 18h1"/>
  <path stroke="#303031" d="M19 18h1"/>
  <path stroke="#0e0e10" d="M20 18h1"/>
  <path stroke="#dda720" d="M9 19h1"/>
  <path stroke="#f4bd18" d="M10 19h1m-3 1h3m-3 1h4m-4 1h4m-2 1h2"/>
  <path stroke="#f4c021" d="M18 19h1m-1 1h1m-1 1h5m-5 1h4m-4 1h2"/>
  <path stroke="#b8842c" d="M7 20h1"/>
  <path stroke="#906824" d="M11 20h1"/>
  <path stroke="#cbcbca" d="M17 20h1"/>
  <path stroke="#ba841f" d="M19 20h1"/>
  <path stroke="#f0ba21" d="M20 20h1"/>
  <path stroke="#eec240" d="M21 20h1"/>
  <path stroke="#ab7b29" d="M7 21h1"/>
  <path stroke="#040406" d="M17 21h1"/>
  <path stroke="#8f8f8f" d="M1 22h1m-1 1h1m26 0h1"/>
  <path stroke="#9e7226" d="M7 22h1"/>
  <path stroke="#d99e27" d="M12 22h1"/>
  <path stroke="#594019" d="M17 22h1"/>
  <path stroke="#8a6224" d="M22 22h1"/>
  <path stroke="#886223" d="M7 23h1"/>
  <path stroke="#d79a28" d="M8 23h1m3 0h1m-2 1h1"/>
  <path stroke="#e1a622" d="M9 23h1"/>
  <path stroke="#4a3516" d="M17 23h1"/>
  <path stroke="#7d571f" d="M20 23h1"/>
  <path stroke="#beb5a7" d="M10 24h1"/>
  <path stroke="#3f2e14" d="M12 24h1"/>
  <path stroke="#443114" d="M18 24h1"/>
  <path stroke="#4d3716" d="M19 24h1"/>
  <path stroke="#6d627f" d="M8 26h15"/>
</svg>