<svg xmlns="http://www.w3.org/2000/svg" viewBox="0 -0.5 30 30" shape-rendering="crispEdges">
  <path stroke="#525252" d="M2 0h1m1 0h24M1 1h1m26 0h1M6 2h3m3 0h3m3 0h2m1 0h1m7 0h1m-4 1h1m2 0h1M2 4h1m26 0h1m-3 1h1m1 0h1m-3 1h1m1 0h1m-3 1h1m1 0h1m-3 1h1m1 0h1m-3 1h1m1 0h1m-3 1h1m1 0h1m-3 1h1m1 0h1m-3 1h1m1 0h1m-3 1h1m1 0h1M2 14h1m24 0h1m1 0h1m-3 1h1m1 0h1M2 16h1m24 0h1m1 0h1M2 17h1m24 0h1m1 0h1M2 18h1m24 0h1m1 0h1m-3 1h1m1 0h1m-3 1h1m1 0h1m-3 1h1m1 0h1m-3 1h1m1 0h1M2 23h1m24 0h1m1 0h1m-3 1h1m1 0h1m-1 1h1M3 26h1m22 0h1m2 0h1M5 27h6m7 0h3"/>
  <path stroke="#383838" d="M3 0h1M0 2h1m8 0h3m8 0h1m2 0h2M0 3h1M0 4h1M0 5h1M0 6h1M0 7h1M0 8h1m15 0h1M0 9h1m-1 1h1m13 0h1M0 11h1m-1 1h1m8 0h1m10 0h1M0 13h1m7 0h1m3 0h1m4 0h1m3 0h1M0 14h1m-1 1h1m13 0h2M0 16h1m14 0h1M0 17h1m7 0h1m1 0h1m1 0h1m4 0h1m1 0h1m1 0h1M0 18h1m8 0h1m10 0h1M0 19h1m-1 1h1m14 0h1M0 21h1m-1 1h1m-1 1h1m-1 1h1m-1 1h1m1 0h1m-3 1h1m-1 1h1m24 0h1m3 0h1M1 28h1m26 0h1M2 29h26"/>
  <path stroke="#a3a3a3" d="M2 1h1m24 0h1M3 2h1m22 0h1M2 3h1m24 0h1M15 9h1m-5 3h1m2 0h1m3 0h1m-9 1h1m8 0h1m-6 1h1M1 17h1m9 1h1m3 0h1m2 0h1M1 19h1m26 0h1M1 20h1m26 0h1M1 21h1m12 0h1m13 0h1m-1 1h1M1 24h1m26 0h1m-1 1h1M1 26h2m24 0h2M2 27h2m22 0h2M3 28h1m1 0h7m14 0h1"/>
  <path stroke="#ccc" d="M3 1h4m18 0h2M2 2h1m24 0h1M1 3h1m26 0h1M1 4h1m26 0h1M1 7h1M1 8h1M1 9h1m-1 2h1m-1 1h1m-1 1h1m26 0h1m-1 1h1M1 25h1m2 3h1m10 0h4m3 0h2"/>
  <path stroke="#e0e0e0" d="M7 1h5m1 0h1m9 0h2m3 4h1m-1 1h1m-1 4h1m-1 1h1m-1 1h1M7 20h1"/>
  <path stroke="#f5f5f5" d="M12 1h1m1 0h9M1 5h1M1 6h1m7 0h3m3 0h6m0 1h2m0 1h1"/>
  <path stroke="#7a7a7a" d="M1 2h1m2 0h2m19 0h1m2 0h1M3 3h1m23 1h1M2 5h1M2 6h1M2 7h1M2 8h1"/>
  <path stroke="#666" d="M15 2h3m4 0h1M10 7h3m4 0h3M9 8h1m3 0h1m6 0h1M2 9h1m6 0h1m4 0h1m5 0h1M2 10h1m6 0h1m5 0h1m4 0h1M2 11h1m7 0h1m2 0h1m2 0h1m2 0h1M2 12h1m7 0h1m1 0h2m2 0h2m1 0h1M2 13h1m4 0h1m14 0h1M6 14h1m4 0h1m6 0h1m4 0h1M2 15h1m3 0h1m3 0h1m5 0h1m2 0h1m3 0h1M6 16h1m3 0h2m2 0h1m3 0h2m3 0h1M7 17h1m12 0h1m1 0h1m-13 1h1m1 0h2m2 0h2m1 0h1M2 19h1m7 0h1m2 0h1m2 0h1m2 0h1M2 20h1m6 0h1m4 0h1m5 0h1M2 21h1m6 0h1m5 0h1m4 0h1M2 22h1m6 0h1m3 0h1m2 0h1m3 0h1m-11 1h3m4 0h3M2 24h1m24 1h1M1 27h1m2 0h1m6 0h7m3 0h4m3 0h1M2 28h1m24 0h1"/>
  <path stroke="#bfb5cf" d="M4 3h22M3 5h1m22 0h1m-1 1h1M3 25h1m22 0h1m-2 1h1"/>
  <path stroke="#aa9cbf" d="M3 4h3m17 0h4M4 5h1m20 0h1M3 6h1M3 7h1m22 0h1M3 23h1m-1 1h1m22 0h1M4 25h1m20 0h1M4 26h2m17 0h2"/>
  <path stroke="#9584ae" d="M6 4h17M5 5h4m12 0h4M4 6h3m16 0h3M4 7h2m18 0h2M3 8h2m20 0h2M3 9h2m20 0h2M3 10h2m20 0h2M3 11h2m20 0h2M3 12h2m20 0h2M3 13h2m20 0h2M3 14h2m20 0h2M3 15h2m20 0h2M3 16h2m20 0h2M3 17h2m20 0h2M3 18h2m20 0h2M3 19h2m20 0h2M3 20h2m20 0h2M3 21h2m20 0h2M3 22h2m20 0h2M4 23h2m19 0h2M4 24h3m17 0h2M5 25h3m15 0h2M6 26h3m12 0h2"/>
  <path stroke="#000" d="M9 5h12M7 6h2m12 0h2M6 7h1m16 0h1M5 8h1m18 0h1M5 9h1m18 0h1M5 10h1m18 0h1M5 11h1m18 0h1M5 12h1m18 0h1M5 13h1m18 0h1M5 14h1m18 0h1M5 15h1m18 0h1M5 16h1m18 0h1M5 17h1m18 0h1M5 18h1m18 0h1M5 19h1m18 0h1M5 20h1m18 0h1M5 21h1m18 0h1M5 22h1m18 0h1M6 23h1m16 0h1M7 24h2m12 0h2M9 25h12"/>
  <path stroke="#e5e3e8" d="M12 6h3M7 7h3m3 0h4m3 0h1M6 8h3m1 0h3m1 0h2m1 0h3m1 0h2M6 9h3m1 0h4m2 0h4m1 0h3M6 10h2m2 0h4m2 0h4m1 0h3M6 11h4m1 0h2m1 0h2m1 0h2m1 0h4M6 12h3m6 0h1m5 0h3M6 13h1m2 0h1m1 0h1m1 0h4m1 0h1m1 0h1m2 0h1M7 14h4m1 0h2m2 0h2m1 0h4M7 15h3m1 0h2m4 0h2m1 0h3M7 16h3m2 0h2m2 0h2m2 0h3M6 17h1m2 0h1m1 0h1m1 0h4m1 0h1m4 0h1M6 18h3m5 0h1m6 0h3M6 19h4m1 0h2m1 0h2m1 0h2m1 0h4M6 20h1m1 0h1m1 0h4m2 0h4m1 0h3M6 21h3m1 0h4m2 0h4m1 0h3M6 22h3m1 0h3m1 0h2m1 0h3m1 0h3M7 23h3m3 0h4m3 0h3M9 24h12"/>
  <path stroke="#fff" d="M28 7h1m-1 1h1m-1 1h1"/>
  <path stroke="#b8b8b8" d="M1 10h1m-1 4h1m-1 1h1m26 0h1M1 16h1m26 0h1m-1 1h1M1 18h1m26 0h1M12 28h3m4 0h3m2 0h2"/>
  <path stroke="#dde2e7" d="M8 10h1"/>
  <path stroke="#707070" d="M15 14h1m-3 1h1"/>
  <path stroke="#8f8f8f" d="M1 22h1m-1 1h1m26 0h1"/>
  <path stroke="#6d627f" d="M24 23h1m-2 1h1M8 25h1m12 0h2M9 26h12"/>
</svg>