<svg xmlns="http://www.w3.org/2000/svg" viewBox="0 -0.5 30 30" shape-rendering="crispEdges">
  <path stroke="#525252" d="M2 0h1m1 0h24M1 1h1m26 0h1M6 2h3m3 0h3m3 0h2m1 0h1m7 0h1m-4 1h1m2 0h1M2 4h1m26 0h1m-3 1h1m1 0h1m-3 1h1m1 0h1m-3 1h1m1 0h1m-3 1h1m1 0h1m-3 1h1m1 0h1m-3 1h1m1 0h1m-3 1h1m1 0h1m-3 1h1m1 0h1m-3 1h1m1 0h1M2 14h1m24 0h1m1 0h1m-3 1h1m1 0h1M2 16h1m24 0h1m1 0h1M2 17h1m24 0h1m1 0h1M2 18h1m24 0h1m1 0h1m-3 1h1m1 0h1m-3 1h1m1 0h1m-3 1h1m1 0h1m-3 1h1m1 0h1M2 23h1m24 0h1m1 0h1m-3 1h1m1 0h1m-1 1h1M3 26h1m22 0h1m2 0h1M5 27h6m7 0h3"/>
  <path stroke="#383838" d="M3 0h1M0 2h1m8 0h3m8 0h1m2 0h2M0 3h1M0 4h1M0 5h1M0 6h1M0 7h1M0 8h1M0 9h1m-1 1h1m-1 1h1m-1 1h1m-1 1h1m-1 1h1m5 0h1m16 0h1M0 15h1m-1 1h1m6 0h1m-8 1h1m-1 1h1m-1 1h1m-1 1h1m-1 1h1m-1 1h1m-1 1h1m-1 1h1m-1 1h1m1 0h1m4 0h1m-8 1h1m-1 1h1m24 0h1m3 0h1M1 28h1m26 0h1M2 29h26"/>
  <path stroke="#a3a3a3" d="M2 1h1m24 0h1M3 2h1m22 0h1M2 3h1m24 0h1M7 12h1m6 0h1m5 0h2M9 13h1m-4 2h1m1 0h1m13 0h1M8 16h1m11 0h1m2 0h1M1 17h1m7 0h1m-9 2h1m26 0h1M1 20h1m26 0h1M1 21h1m26 0h1m-1 1h1M1 24h1m26 0h1m-19 1h1m17 0h1M1 26h2m24 0h2M2 27h2m22 0h2M3 28h1m1 0h7m14 0h1"/>
  <path stroke="#ccc" d="M3 1h4m18 0h2M2 2h1m24 0h1M1 3h1m26 0h1M1 4h1m26 0h1M1 7h1M1 8h1M1 9h1m-1 2h1m15 0h1M1 12h1m-1 1h1m26 0h1m-1 1h1M1 25h1m2 3h1m10 0h4m3 0h2"/>
  <path stroke="#e0e0e0" d="M7 1h5m1 0h1m9 0h2m3 4h1m-1 1h1m-1 4h1m-1 1h1m-1 1h1"/>
  <path stroke="#f5f5f5" d="M12 1h1m1 0h9M1 5h1M1 6h1m9 2h10m0 1h2m0 1h1"/>
  <path stroke="#7a7a7a" d="M1 2h1m2 0h2m19 0h1m2 0h1M3 3h1m23 1h1M2 5h1M2 6h1M2 7h1M2 8h1"/>
  <path stroke="#666" d="M15 2h3m4 0h1M2 9h1m-1 1h1m-1 1h1m-1 1h1m6 0h1m-8 1h1m4 0h1m13 0h1M7 14h1m13 0h1M2 15h1m4 0h1m1 1h1m12 0h1m-4 1h3M2 19h1m-1 1h1m-1 1h1m-1 1h1m-1 2h1m5 1h1m18 0h1M1 27h1m2 0h1m6 0h7m3 0h4m3 0h1M2 28h1m24 0h1"/>
  <path stroke="#bfb5cf" d="M4 3h22M3 5h1m22 0h1m-1 1h1M3 25h1m22 0h1m-2 1h1"/>
  <path stroke="#aa9cbf" d="M3 4h3m17 0h4M4 5h1m20 0h1M3 6h1M3 7h1m22 0h1M3 23h1m-1 1h1m22 0h1M4 25h1m20 0h1M4 26h2m17 0h2"/>
  <path stroke="#9584ae" d="M6 4h17M5 5h20M4 6h22M4 7h5m12 0h5M3 8h4m16 0h4M3 9h3m18 0h3M3 10h2m20 0h2M3 11h1m22 0h1M3 12h1m22 0h1M3 13h1m22 0h1M3 14h1m22 0h1M3 15h1m22 0h1M3 16h1m22 0h1M3 17h1m22 0h1M3 18h1m22 0h1M3 19h1m22 0h1M3 20h2m20 0h2M3 21h3m19 0h2M3 22h3m18 0h3M4 23h3m16 0h4M4 24h5m12 0h5M5 25h2m4 0h14M6 26h17"/>
  <path stroke="#000" d="M9 7h12M7 8h2m12 0h2M6 9h1m16 0h1M5 10h1m18 0h1M4 11h1m20 0h1M4 12h1m20 0h1M4 13h1m20 0h1M4 14h1m20 0h1M4 15h1m20 0h1M4 16h1m20 0h1M4 17h1m20 0h1M4 18h1m20 0h1M4 19h1m20 0h1M5 20h1m18 0h1M6 21h1m16 0h1M7 22h2m12 0h2M9 23h12"/>
  <path stroke="#fff" d="M28 7h1m-1 1h1m-1 1h1"/>
  <path stroke="#e5e3e8" d="M9 8h2M7 9h14M6 10h11m3 0h3M5 11h12m3 0h5M5 12h2m3 0h4m2 0h2m1 0h1m2 0h3M5 13h1m4 0h3m6 0h1m3 0h2M5 14h1m2 0h4m7 0h2m3 0h1M5 15h1m3 0h2m7 0h4m2 0h1M5 16h2m3 0h1m7 0h2m4 0h1M5 17h3m2 0h1m6 0h2m3 0h3M5 18h20M5 19h20M6 20h18M7 21h16M9 22h12"/>
  <path stroke="#b8b8b8" d="M1 10h1m15 0h1M1 14h1m-1 1h1m26 0h1M1 16h1m26 0h1m-1 1h1M1 18h1m26 0h1M12 28h3m4 0h3m2 0h2"/>
  <path stroke="#bf5f9d" d="M18 10h1"/>
  <path stroke="#955a81" d="M19 10h1"/>
  <path stroke="#8c5c7e" d="M18 11h1"/>
  <path stroke="#7f4c6d" d="M19 11h1"/>
  <path stroke="#707070" d="M8 12h1m-3 1h1m1 0h1m11 0h1m1 0h1m-1 1h1m0 1h1m-3 1h1M8 17h1m0 8h1"/>
  <path stroke="#4c4c4c" d="M15 12h1m-3 5h1"/>
  <path stroke="#9d5d89" d="M18 12h1"/>
  <path stroke="#4a4a4a" d="M13 13h1"/>
  <path stroke="#e69ce0" d="M14 13h1"/>
  <path stroke="#844d78" d="M15 13h1"/>
  <path stroke="#878787" d="M16 13h1"/>
  <path stroke="#424242" d="M17 13h1"/>
  <path stroke="#ad6294" d="M18 13h1"/>
  <path stroke="#575757" d="M12 14h1m2 1h1"/>
  <path stroke="#919191" d="M13 14h1"/>
  <path stroke="#515151" d="M14 14h1"/>
  <path stroke="#c07ba3" d="M15 14h1"/>
  <path stroke="#773956" d="M16 14h1"/>
  <path stroke="#985189" d="M17 14h1"/>
  <path stroke="#3a3a3a" d="M18 14h1"/>
  <path stroke="#5e5e5e" d="M11 15h1m-1 2h2"/>
  <path stroke="#696969" d="M12 15h1m2 1h1"/>
  <path stroke="#494949" d="M13 15h1m3 1h1"/>
  <path stroke="#6e6e6e" d="M14 15h1"/>
  <path stroke="#c576ad" d="M16 15h1"/>
  <path stroke="#754167" d="M17 15h1"/>
  <path stroke="#5a5a5a" d="M11 16h1"/>
  <path stroke="#545454" d="M12 16h1"/>
  <path stroke="#6b6b6b" d="M13 16h1"/>
  <path stroke="#5b5b5b" d="M14 16h1"/>
  <path stroke="#b45ca0" d="M16 16h1"/>
  <path stroke="#6c6c6c" d="M14 17h2"/>
  <path stroke="#565656" d="M16 17h1"/>
  <path stroke="#6d627f" d="M24 21h1M6 22h1m16 0h1M7 23h2m12 0h2M9 24h12"/>
  <path stroke="#8f8f8f" d="M1 22h1m-1 1h1m26 0h1"/>
</svg>