<svg xmlns="http://www.w3.org/2000/svg" viewBox="0 -0.5 16 18" shape-rendering="crispEdges">
  <path stroke="#383838" d="M5 0h6M3 1h1m8 0h1M2 2h1m10 0h1M1 3h1m12 0h1M1 4h1m12 0h1M0 5h2m12 0h1M0 6h1m5 0h1m2 0h1m5 0h1M0 7h1m14 0h1M0 8h1m14 0h1M1 9h1m2 0h1m6 0h1m2 0h1M2 10h2m8 0h2m-9 6h2m2 0h2"/>
  <path stroke="#6b564c" d="M4 1h1m1 0h3m2 0h1M3 2h1m3 0h1m4 0h1M2 3h1m10 0h1M8 4h1M4 5h1m4 0h1m1 0h1M3 7h1m8 0h1"/>
  <path stroke="#997d70" d="M5 1h1m3 0h2M4 2h3m1 0h1m2 0h1M4 3h7m1 0h1M3 4h3m1 0h1m1 0h1m1 0h1m1 0h1M2 5h2m1 0h1m1 0h2m1 0h1m1 0h2M1 6h3m8 0h2M2 7h1m10 0h1M3 8h1m8 0h1"/>
  <path stroke="#b19589" d="M9 2h2M3 3h1M2 4h1m3 0h1m3 0h1m3 2h1M1 7h1m12 0h1M1 8h2m10 0h1"/>
  <path stroke="#c2b1a9" d="M11 3h1m0 1h1m1 4h1M2 9h2m8 0h2"/>
  <path stroke="#c7a580" d="M6 5h1M4 6h1m6 0h1M4 8h1m6 0h1M5 9h1m4 0h1m-7 4h1m6 0h1m-7 2h1m3 0h1"/>
  <path stroke="#b0b0d0" d="M5 6h1m4 0h1"/>
  <path stroke="#eed7bf" d="M7 6h2M7 7h2M6 8h4m-7 4h2m6 0h1"/>
  <path stroke="#d9bb9b" d="M4 7h1m6 0h1M6 9h1m2 0h1m0 3h1m-8 1h1"/>
  <path stroke="#fffcfc" d="M5 7h1m4 0h1"/>
  <path stroke="#3f7d70" d="M6 7h1m2 0h1m-3 3h2m-3 1h4m-5 1h5"/>
  <path stroke="#f7b6af" d="M5 8h1m4 0h1"/>
  <path stroke="#d89070" d="M7 9h2"/>
  <path stroke="#000" d="M5 10h1m4 0h1m-8 1h2m5 0h2M2 12h1m9 0h1M2 13h1m9 0h1M3 14h2m6 0h1m-8 1h1m6 0h1m-8 1h1m2 0h2m2 0h1m-7 1h2m2 0h2"/>
  <path stroke="#304641" d="M6 10h1m2 0h1m-5 1h1m-1 2h6"/>
  <path stroke="#383878" d="M5 14h4m1 0h1m-4 1h1m2 0h1"/>
  <path stroke="#4040d0" d="M9 14h1m-4 1h1m1 0h1"/>
</svg>