<svg xmlns="http://www.w3.org/2000/svg" viewBox="0 -0.5 29 18" shape-rendering="crispEdges">
<metadata>Made with Pixels to Svg https://codepen.io/shshaw/pen/XbxvNj</metadata>
<path stroke="#565464" d="M1 0h1M3 0h1M25 0h1M27 0h1M0 1h1M28 1h1M2 2h1M26 2h1M0 3h1M3 3h1M25 3h1M28 3h1M0 14h1M3 14h1M25 14h1M28 14h1M2 15h1M26 15h1M0 16h1M28 16h1M1 17h1M3 17h1M25 17h1M27 17h1" />
<path stroke="#68657a" d="M2 0h1M4 0h2M23 0h2M26 0h1M1 1h1M27 1h1M0 2h1M3 2h6M19 2h7M28 2h1M2 3h1M26 3h1M0 4h1M2 4h1M26 4h1M28 4h1M0 5h1M2 5h1M26 5h1M28 5h1M2 6h1M26 6h1M2 7h1M26 7h1M26 8h1M2 9h1M26 9h1M2 10h1M26 10h1M2 11h1M26 11h1M0 12h1M2 12h1M26 12h1M28 12h1M0 13h1M2 13h1M26 13h1M28 13h1M2 14h1M26 14h1M0 15h1M3 15h7M20 15h6M28 15h1M1 16h1M27 16h1M2 17h1M4 17h2M23 17h2M26 17h1" />
<path stroke="#7d7a90" d="M6 0h17M2 1h1M26 1h1M1 2h1M9 2h10M27 2h1M0 6h1M28 6h1M0 7h1M28 7h1M0 8h1M2 8h1M28 8h1M0 9h1M28 9h1M0 10h1M28 10h1M0 11h1M28 11h1M1 15h1M10 15h10M27 15h1M2 16h1M26 16h1M6 17h17" />
<path stroke="#9395b4" d="M3 1h4M21 1h5M1 3h1M27 3h1M1 4h1M27 4h1M1 5h1M27 5h1M1 6h1M27 6h1M1 7h1M27 10h1M1 11h1M27 11h1M1 12h1M27 12h1M1 13h1M27 13h1M1 14h1M27 14h1M3 16h5M22 16h4" />
<path stroke="#acaec5" d="M7 1h14M27 7h1M1 8h1M27 8h1M1 9h1M27 9h1M1 10h1M8 16h14" />
<path stroke="#383838" d="M4 3h21M3 4h1M25 4h1M3 5h1M25 5h1M3 6h1M25 6h1M3 7h1M25 7h1M3 8h1M25 8h1M3 9h1M25 9h1M3 10h1M25 10h1M3 11h1M25 11h1M3 12h1M25 12h1M3 13h1M25 13h1M4 14h21" />
<path stroke="#8d688d" d="M4 4h2M23 4h2M4 5h1M24 5h1M4 12h1M24 12h1M4 13h2M23 13h2" />
<path stroke="#a07ea0" d="M6 4h17M5 5h3M22 5h2M4 6h2M23 6h2M4 7h1M23 7h2M4 8h1M24 8h1M4 9h1M24 9h1M4 10h2M24 10h1M4 11h2M23 11h2M5 12h2M21 12h3M6 13h17" />
<path stroke="#b499b4" d="M8 5h14M6 6h17M5 7h18M5 8h19M5 9h19M6 10h18M6 11h17M7 12h14" />
</svg>