

<svg xmlns="http://www.w3.org/2000/svg" viewBox="0 -0.5 44 10" shape-rendering="crispEdges">
  <path stroke="#525252" d="M2 0h40M1 1h1m40 0h1m0 1h1m-4 1h1m2 0h1m-1 1h1M2 5h1m38 0h1m1 0h1M3 6h1m36 0h1m2 0h1M5 7h5m29 0h1"/>
  <path stroke="#a3a3a3" d="M2 1h1m38 0h1M3 2h1m36 0h1M2 3h1m38 0h1M2 6h1m38 0h2M2 7h2m36 0h2M3 8h9m28 0h1"/>
  <path stroke="#ccc" d="M3 1h4m32 0h2M2 2h1m38 0h1M1 3h1m40 0h1m-1 2h1M15 8h19m1 0h2"/>
  <path stroke="#e0e0e0" d="M7 1h5m1 0h1m23 0h2m3 3h1"/>
  <path stroke="#f5f5f5" d="M12 1h1m1 0h23M1 4h1"/>
  <path stroke="#383838" d="M0 2h1M0 3h1M0 4h1M0 5h1M0 6h1M0 7h1m42 0h1M1 8h1m40 0h1M2 9h40"/>
  <path stroke="#7a7a7a" d="M1 2h1m2 0h2m33 0h1m2 0h1M3 3h1M2 4h1m38 0h1"/>
  <path stroke="#666" d="M6 2h33M1 7h1m2 0h1m5 0h29m3 0h1M2 8h1m38 0h1"/>
  <path stroke="#b8b8b8" d="M1 5h1M1 6h1m10 2h3m19 0h1m2 0h3"/>
 
  <!-- fill l to d <svg className="fill">  -->
  <path stroke="#5bae5c" d="M5 4h34"/>
  <path stroke="#4a964b" d="M4 3h36M4 4h1m34 0h1M8 5h29"/>
 <path stroke="#438944" d="M3 4h1m36 0h1M3 5h5m29 0h4"/>
  <path stroke="#366d37" d="M4 6h36"/>
</svg>


