<svg xmlns="http://www.w3.org/2000/svg" viewBox="0 -0.5 44 10" shape-rendering="crispEdges">
<metadata>Made with Pixels to Svg https://codepen.io/shshaw/pen/XbxvNj</metadata>
<path stroke="#525252" d="M2 0h1M4 0h38M1 1h1M42 1h1M43 2h1M40 3h1M43 3h1M43 4h1M2 5h1M41 5h1M43 5h1M3 6h1M40 6h1M43 6h1M5 7h5M39 7h1" />
<path stroke="#383838" d="M3 0h1M0 2h1M0 3h1M0 4h1M0 5h1M0 6h1M0 7h1M43 7h1M1 8h1M42 8h1M2 9h40" />
<path stroke="#a3a3a3" d="M2 1h1M41 1h1M3 2h1M40 2h1M2 3h1M41 3h1M2 6h1M41 6h2M2 7h2M40 7h2M3 8h9M40 8h1" />
<path stroke="#cccccc" d="M3 1h4M39 1h2M2 2h1M41 2h1M1 3h1M42 3h1M42 5h1M15 8h19M35 8h2" />
<path stroke="#e0e0e0" d="M7 1h5M13 1h1M37 1h2M42 4h1" />
<path stroke="#f5f5f5" d="M12 1h1M14 1h23M1 4h1" />
<path stroke="#7a7a7a" d="M1 2h1M4 2h2M39 2h1M42 2h1M3 3h1M2 4h1M41 4h1" />
<path stroke="#666666" d="M6 2h33M1 7h1M4 7h1M10 7h29M42 7h1M2 8h1M41 8h1" />
<path stroke="#b8b8b8" d="M1 5h1M1 6h1M12 8h3M34 8h1M37 8h3" />

<!-- fill- light to dark -->
<path stroke="#7fa0da" d="M5 4h34" />
<path stroke="#5b7cbd" d="M4 3h36M4 4h1M39 4h1M8 5h29" />
<path stroke="#4767ad" d="M3 4h1M40 4h1M3 5h5M37 5h4" />
<path stroke="#32529c" d="M4 6h36" />
</svg>


