<svg xmlns="http://www.w3.org/2000/svg" viewBox="0 -0.5 89 33" shape-rendering="crispEdges">
  <path stroke="#f1d5d0" d="M43 1h1m-2 3h1m1 1h1m-2 1h1m-2 2h1m1 0h1m-2 1h1m-30 1h1m-3 1h1m27 0h1m6 0h1m-35 1h1m25 0h1m1 0h1m4 0h1m1 0h1m26 0h1m-36 1h1m6 0h1m26 0h1m-65 1h1m6 0h1m-9 1h1m1 0h1m4 0h1m1 0h1m17 0h2m5 0h2m5 0h2m19 0h1m6 0h1m-69 1h1m6 0h1m17 0h4m3 0h4m3 0h4m17 0h1m1 0h1m4 0h1m1 0h1m-47 1h1m2 0h2m2 0h1m2 0h2m2 0h1m2 0h2m2 0h1m16 0h1m6 0h1M6 18h2m5 0h2m5 0h2m10 0h3m4 0h3m4 0h3m4 0h3M5 19h4m3 0h4m3 0h4m8 0h2m1 0h2m2 0h2m1 0h2m2 0h2m1 0h2m2 0h2m1 0h2m10 0h2m5 0h2m5 0h2M3 20h1m2 0h2m2 0h1m2 0h2m2 0h1m2 0h2m2 0h1m5 0h2m3 0h4m3 0h4m3 0h4m3 0h2m8 0h4m3 0h4m3 0h4M2 21h3m4 0h3m4 0h3m4 0h3m3 0h4m1 0h6m1 0h6m1 0h6m1 0h4m5 0h1m2 0h2m2 0h1m2 0h2m2 0h1m2 0h2m2 0h1M1 22h2m1 0h2m2 0h2m1 0h2m2 0h2m1 0h2m2 0h2m1 0h2m1 0h32m3 0h3m4 0h3m4 0h3m4 0h3M0 23h2m3 0h4m3 0h4m3 0h4m3 0h35m1 0h2m1 0h2m2 0h2m1 0h2m2 0h2m1 0h2m2 0h2m1 0h3M0 24h3m1 0h6m1 0h6m1 0h6m1 0h38m3 0h4m3 0h4m3 0h4m3 0h2M0 25h64m1 0h6m1 0h6m1 0h6m1 0h3M0 26h89M0 27h89M0 28h89M0 29h89M0 30h89M0 31h89M0 32h89"/>
</svg>