<svg xmlns="http://www.w3.org/2000/svg" viewBox="0 -0.5 183 118" shape-rendering="crispEdges">
<!-- border -->
<!-- outer -->
  <path stroke="#30485a" d="M1 0h174M0 1h1M0 2h1M0 3h1M0 4h1M0 5h1M0 6h1M0 7h1M0 8h1m181 0h1M0 9h1m181 0h1M0 10h1m181 0h1M0 11h1m181 0h1M0 12h1m181 0h1M0 13h1m181 0h1M0 14h1m181 0h1M0 15h1m181 0h1M0 16h1m181 0h1M0 17h1m181 0h1M0 18h1m181 0h1M0 19h1m181 0h1M0 20h1m181 0h1M0 21h1m181 0h1M0 22h1m181 0h1M0 23h1m181 0h1M0 24h1m181 0h1M0 25h1m181 0h1M0 26h1m181 0h1M0 27h1m181 0h1M0 28h1m181 0h1M0 29h1m181 0h1M0 30h1m181 0h1M0 31h1m181 0h1M0 32h1m181 0h1M0 33h1m181 0h1M0 34h1m181 0h1M0 35h1m181 0h1M0 36h1m181 0h1M0 37h1m181 0h1M0 38h1m181 0h1M0 39h1m181 0h1M0 40h1m181 0h1M0 41h1m181 0h1M0 42h1m181 0h1M0 43h1m181 0h1M0 44h1m181 0h1M0 45h1m181 0h1M0 46h1m181 0h1M0 47h1m181 0h1M0 48h1m181 0h1M0 49h1m181 0h1M0 50h1m181 0h1M0 51h1m181 0h1M0 52h1m181 0h1M0 53h1m181 0h1M0 54h1m181 0h1M0 55h1m181 0h1M0 56h1m181 0h1M0 57h1m181 0h1M0 58h1m181 0h1M0 59h1m181 0h1M0 60h1m181 0h1M0 61h1m181 0h1M0 62h1m181 0h1M0 63h1m181 0h1M0 64h1m181 0h1M0 65h1m181 0h1M0 66h1m181 0h1M0 67h1m181 0h1M0 68h1m181 0h1M0 69h1m181 0h1M0 70h1m181 0h1M0 71h1m181 0h1M0 72h1m181 0h1M0 73h1m181 0h1M0 74h1m181 0h1M0 75h1m181 0h1M0 76h1m181 0h1M0 77h1m181 0h1M0 78h1m181 0h1M0 79h1m181 0h1M0 80h1m181 0h1M0 81h1m181 0h1M0 82h1m181 0h1M0 83h1m181 0h1M0 84h1m181 0h1M0 85h1m181 0h1M0 86h1m181 0h1M0 87h1m181 0h1M0 88h1m181 0h1M0 89h1m181 0h1M0 90h1m181 0h1M0 91h1m181 0h1M0 92h1m181 0h1M0 93h1m181 0h1M0 94h1m181 0h1M0 95h1m181 0h1M0 96h1m181 0h1M0 97h1m181 0h1M0 98h1m181 0h1M0 99h1m181 0h1M0 100h1m181 0h1M0 101h1m181 0h1M0 102h1m181 0h1M0 103h1m181 0h1M0 104h1m181 0h1M0 105h1m181 0h1M0 106h1m181 0h1M0 107h1m181 0h1M0 108h1m181 0h1M0 109h1m181 0h1M0 110h1m181 0h1M0 111h1m181 0h1M0 112h1m181 0h1M0 113h1m181 0h1M0 114h1m181 0h1M0 115h1m181 0h1M0 116h1m181 0h1M1 117h181"/>


<!-- middle -->
  <path stroke="#4f7592" d="M1 1h173M1 3h1M1 4h1M1 5h1M1 6h1M1 7h1M1 8h1M1 9h1m179 0h1M1 10h1m179 0h1M1 11h1m179 0h1M1 12h1m179 0h1M1 13h1m179 0h1M1 14h1m179 0h1M1 15h1m179 0h1M1 16h1m179 0h1M1 17h1m179 0h1M1 18h1m179 0h1M1 19h1m179 0h1M1 20h1m179 0h1M1 21h1m179 0h1M1 22h1m179 0h1M1 23h1m179 0h1M1 24h1m179 0h1M1 25h1m179 0h1M1 26h1m179 0h1M1 27h1m179 0h1M1 28h1m179 0h1M1 29h1m179 0h1M1 30h1m179 0h1M1 31h1m179 0h1M1 32h1m179 0h1M1 33h1m179 0h1M1 34h1m179 0h1M1 35h1m179 0h1M1 36h1m179 0h1M1 37h1m179 0h1M1 38h1m179 0h1M1 39h1m179 0h1M1 40h1m179 0h1M1 41h1m179 0h1M1 42h1m179 0h1M1 43h1m179 0h1M1 44h1m179 0h1M1 45h1m179 0h1M1 46h1m179 0h1M1 47h1m179 0h1M1 48h1m179 0h1M1 49h1m179 0h1M1 50h1m179 0h1M1 51h1m179 0h1M1 52h1m179 0h1M1 53h1m179 0h1M1 54h1m179 0h1M1 55h1m179 0h1M1 56h1m179 0h1M1 57h1m179 0h1M1 58h1m179 0h1M1 59h1m179 0h1M1 60h1m179 0h1M1 61h1m179 0h1M1 62h1m179 0h1M1 63h1m179 0h1M1 64h1m179 0h1M1 65h1m179 0h1M1 66h1m179 0h1M1 67h1m179 0h1M1 68h1m179 0h1M1 69h1m179 0h1M1 70h1m179 0h1M1 71h1m179 0h1M1 72h1m179 0h1M1 73h1m179 0h1M1 74h1m179 0h1M1 75h1m179 0h1M1 76h1m179 0h1M1 77h1m179 0h1M1 78h1m179 0h1M1 79h1m179 0h1M1 80h1m179 0h1M1 81h1m179 0h1M1 82h1m179 0h1M1 83h1m179 0h1M1 84h1m179 0h1M1 85h1m179 0h1M1 86h1m179 0h1M1 87h1m179 0h1M1 88h1m179 0h1M1 89h1m179 0h1M1 90h1m179 0h1M1 91h1m179 0h1M1 92h1m179 0h1M1 93h1m179 0h1M1 94h1m179 0h1M1 95h1m179 0h1M1 96h1m179 0h1M1 97h1m179 0h1M1 98h1m179 0h1M1 99h1m179 0h1M1 100h1m179 0h1M1 101h1m179 0h1M1 102h1m179 0h1M1 103h1m179 0h1M1 104h1m179 0h1M1 105h1m179 0h1M1 106h1m179 0h1M1 107h1m179 0h1M1 108h1m179 0h1M1 109h1m179 0h1M1 110h1m179 0h1M1 111h1m179 0h1M1 112h1m179 0h1M1 113h1m179 0h1M1 114h1m179 0h1M1 116h181"/>
  
 
<!-- inner -->
  <path stroke="#405f77" d="M1 2h173M2 3h1M2 4h1M2 5h1M2 6h1M2 7h1M2 8h1M2 9h1m177 0h1M2 10h1m177 0h1M2 11h1m177 0h1M2 12h1m177 0h1M2 13h1m177 0h1M2 14h1m177 0h1M2 15h1m177 0h1M2 16h1m177 0h1M2 17h1m177 0h1M2 18h1m177 0h1M2 19h1m177 0h1M2 20h1m177 0h1M2 21h1m177 0h1M2 22h1m177 0h1M2 23h1m177 0h1M2 24h1m177 0h1M2 25h1m177 0h1M2 26h1m177 0h1M2 27h1m177 0h1M2 28h1m177 0h1M2 29h1m177 0h1M2 30h1m177 0h1M2 31h1m177 0h1M2 32h1m177 0h1M2 33h1m177 0h1M2 34h1m177 0h1M2 35h1m177 0h1M2 36h1m177 0h1M2 37h1m177 0h1M2 38h1m177 0h1M2 39h1m177 0h1M2 40h1m177 0h1M2 41h1m177 0h1M2 42h1m177 0h1M2 43h1m177 0h1M2 44h1m177 0h1M2 45h1m177 0h1M2 46h1m177 0h1M2 47h1m177 0h1M2 48h1m177 0h1M2 49h1m177 0h1M2 50h1m177 0h1M2 51h1m177 0h1M2 52h1m177 0h1M2 53h1m177 0h1M2 54h1m177 0h1M2 55h1m177 0h1M2 56h1m177 0h1M2 57h1m177 0h1M2 58h1m177 0h1M2 59h1m177 0h1M2 60h1m177 0h1M2 61h1m177 0h1M2 62h1m177 0h1M2 63h1m177 0h1M2 64h1m177 0h1M2 65h1m177 0h1M2 66h1m177 0h1M2 67h1m177 0h1M2 68h1m177 0h1M2 69h1m177 0h1M2 70h1m177 0h1M2 71h1m177 0h1M2 72h1m177 0h1M2 73h1m177 0h1M2 74h1m177 0h1M2 75h1m177 0h1M2 76h1m177 0h1M2 77h1m177 0h1M2 78h1m177 0h1M2 79h1m177 0h1M2 80h1m177 0h1M2 81h1m177 0h1M2 82h1m177 0h1M2 83h1m177 0h1M2 84h1m177 0h1M2 85h1m177 0h1M2 86h1m177 0h1M2 87h1m177 0h1M2 88h1m177 0h1M2 89h1m177 0h1M2 90h1m177 0h1M2 91h1m177 0h1M2 92h1m177 0h1M2 93h1m177 0h1M2 94h1m177 0h1M2 95h1m177 0h1M2 96h1m177 0h1M2 97h1m177 0h1M2 98h1m177 0h1M2 99h1m177 0h1M2 100h1m177 0h1M2 101h1m177 0h1M2 102h1m177 0h1M2 103h1m177 0h1M2 104h1m177 0h1M2 105h1m177 0h1M2 106h1m177 0h1M2 107h1m177 0h1M2 108h1m177 0h1M2 109h1m177 0h1M2 110h1m177 0h1M2 111h1m177 0h1M2 112h1m177 0h1M2 113h1m177 0h1M2 114h1m177 0h1M1 115h181"/>

<!-- x -->
<!-- x black -->
 <path stroke="#000" d="M176 2h1m3 0h1m-4 1h1m1 0h1m-2 1h1m-2 1h1m1 0h1m-4 1h1m3 0h1"/>
<!-- button outline -->
 <path stroke="#383838" d="M175 0h7m-8 1h1m7 0h1m-9 1h1m7 0h1m-9 1h1m7 0h1m-9 1h1m7 0h1m-9 1h1m7 0h1m-9 1h1m7 0h1m-9 1h1m7 0h1m-8 1h7"/>
<!-- x main fill -->
 <path stroke="#9584ae" d="M175 1h3m-3 1h1m1 0h3m-5 1h2m1 0h1m1 0h1m-5 1h1m2 0h2m-5 1h1m3 0h2m-5 1h3m1 0h1m-2 1h2"/>
<!-- x shadow -->
  <path stroke="#7f6b9e" d="M175 4h1m1 0h1m-3 1h1m2 0h1m-4 1h1m-1 1h5"/>
<!-- x highlight -->
    <path stroke="#aa9cbf" d="M178 1h4m-1 1h1m-1 1h1m-1 1h1"/>
</svg>
