<svg xmlns="http://www.w3.org/2000/svg" viewBox="0 -0.5 30 30" shape-rendering="crispEdges">
  <path stroke="#525252" d="M2 0h1m1 0h24M1 1h1m26 0h1M6 2h3m3 0h3m3 0h2m1 0h1m7 0h1m-4 1h1m2 0h1M2 4h1m26 0h1m-3 1h1m1 0h1m-3 1h1m1 0h1m-3 1h1m1 0h1m-3 1h1m1 0h1m-3 1h1m1 0h1m-3 1h1m1 0h1m-3 1h1m1 0h1m-3 1h1m1 0h1m-3 1h1m1 0h1M2 14h1m24 0h1m1 0h1m-3 1h1m1 0h1M2 16h1m24 0h1m1 0h1M2 17h1m24 0h1m1 0h1M2 18h1m24 0h1m1 0h1m-3 1h1m1 0h1m-3 1h1m1 0h1m-3 1h1m1 0h1m-3 1h1m1 0h1M2 23h1m24 0h1m1 0h1m-3 1h1m1 0h1m-1 1h1M3 26h1m22 0h1m2 0h1M5 27h6m7 0h3"/>
  <path stroke="#383838" d="M3 0h1M0 2h1m8 0h3m8 0h1m2 0h2M0 3h1M0 4h1M0 5h1M0 6h1M0 7h1M0 8h1M0 9h1m-1 1h1m-1 1h1m-1 1h1m-1 1h1m-1 1h1m-1 1h1m-1 1h1m-1 1h1m-1 1h1m-1 1h1m-1 1h1m-1 1h1m-1 1h1m-1 1h1m-1 1h1m-1 1h1m1 0h1m-3 1h1m-1 1h1m24 0h1m3 0h1M1 28h1m26 0h1M2 29h26"/>
  <path stroke="#a3a3a3" d="M2 1h1m24 0h1M3 2h1m22 0h1M2 3h1m24 0h1M1 17h1m-1 2h1m26 0h1M1 20h1m26 0h1M1 21h1m26 0h1m-1 1h1M1 24h1m26 0h1m-1 1h1M1 26h2m24 0h2M2 27h2m22 0h2M3 28h1m1 0h7m14 0h1"/>
  <path stroke="#ccc" d="M3 1h4m18 0h2M2 2h1m24 0h1M1 3h1m26 0h1M1 4h1m26 0h1M1 7h1M1 8h1M1 9h1m-1 2h1m-1 1h1m-1 1h1m26 0h1m-1 1h1M1 25h1m2 3h1m10 0h4m3 0h2"/>
  <path stroke="#e0e0e0" d="M7 1h5m1 0h1m9 0h2m3 4h1m-1 1h1m-1 4h1m-1 1h1m-1 1h1"/>
  <path stroke="#f5f5f5" d="M12 1h1m1 0h9M1 5h1M1 6h1m19 1h1m-1 1h1m-6 1h4m-1 1h2"/>
  <path stroke="#7a7a7a" d="M1 2h1m2 0h2m19 0h1m2 0h1M3 3h1m23 1h1M2 5h1M2 6h1M2 7h1M2 8h1"/>
  <path stroke="#666" d="M15 2h3m4 0h1M2 9h1m-1 1h1m-1 1h1m-1 1h1m-1 1h1m-1 2h1m-1 4h1m-1 1h1m-1 1h1m-1 1h1m-1 2h1m24 1h1M1 27h1m2 0h1m6 0h7m3 0h4m3 0h1M2 28h1m24 0h1"/>
    <!-- bakcground highlight -->
  <path stroke="#bfb5cf" d="M4 3h22M3 5h1m22 0h1m-1 1h1M3 25h1m22 0h1m-2 1h1"/>
    <!-- main bakcground medium -->
  <path stroke="#aa9cbf" d="M3 4h3m17 0h4M4 5h1m20 0h1M3 6h1M3 7h1m22 0h1M3 23h1m-1 1h1m22 0h1M4 25h1m20 0h1M4 26h2m17 0h2"/>

  
  <!-- main bakcground -->
  <path stroke="#9584ae" d="M6 4h2m2 0h11M5 5h2m4 0h9m4 0h1M4 6h3m5 0h1m5 0h1m5 0h2M4 7h3m17 0h2M3 8h3m19 0h2M3 9h2m21 0h1M3 10h2m21 0h1M3 11h2m21 0h1M3 12h2m21 0h1M3 13h2m21 0h1M3 14h2m21 0h1M3 15h2m21 0h1M3 16h2m21 0h1M3 17h3m19 0h2M3 18h1m2 0h2m16 0h3M3 19h1m3 0h3m12 0h5M3 20h1m4 0h2m11 0h6M3 21h1m17 0h6M3 22h2m17 0h5M4 23h2m16 0h5M4 24h2m4 0h1m11 0h4M5 25h5m13 0h2M6 26h4m12 0h1"/>

  <path stroke="#000" d="M8 4h2m11 0h2M7 5h1m2 0h1m9 0h1m2 0h1M7 6h1m3 0h1m1 0h5m1 0h1m3 0h1M7 7h1m4 0h1m5 0h1m4 0h1M6 8h1m17 0h1M5 9h1m19 0h1M5 10h1m19 0h1M5 11h1m19 0h1M5 12h1m19 0h1M5 13h1m19 0h1M5 14h1m19 0h1M5 15h1m19 0h1M6 16h1m17 0h1M7 17h1m15 0h1M5 18h1m2 0h2m11 0h2M6 19h1m3 0h1m9 0h1M4 20h1m2 0h1m2 0h1m9 0h1M8 21h2m10 0h1M5 22h1m15 0h1M6 23h1m3 0h1m10 0h1M7 24h2m2 0h1m9 0h1m-12 1h1m11 0h1"/>
  <path stroke="#d9c6bf" d="M8 5h1m13 0h1m-1 1h1M10 7h1m5 0h2M9 8h1m1 0h2M8 9h2m13 0h1M7 10h2m14 0h1M7 11h2m14 0h1M7 12h2m14 0h1M8 13h1m14 0h1M8 14h2m13 0h1M9 15h2m11 0h1M9 16h3m9 0h1m-12 1h3m6 0h3m-11 1h3m4 0h3M5 19h1m7 0h1m4 0h1M6 20h1m5 0h2m4 0h1M6 21h1m5 0h2m4 0h1M7 22h7m4 0h2m-7 1h1m5 0h1m-7 1h7"/>
  <path stroke="#c3c5cc" d="M9 5h1m11 0h1M8 6h1m1 0h1m9 0h1M8 7h1m2 0h1m1 0h3m3 0h1m2 0h1M8 8h1m14 0h1M7 9h1m-2 3h1m17 0h1M7 13h1m-1 2h2m14 0h1M8 16h1m13 0h1M9 17h1m0 1h1m1 1h1m-8 2h1m4 0h2m7 0h1m-8 2h1m3 2h3"/>
  <path stroke="#e7e5da" d="M9 6h1m11 0h1M9 7h1m10 0h1M10 8h1m2 0h8m1 0h1M10 9h5m7 0h1M9 10h5m8 0h1M9 11h2m11 0h1M9 12h3m10 0h1M9 13h3m10 0h1m-13 1h3m8 0h2m-12 1h3m6 0h2m-10 1h3m4 0h2m-8 1h2m3 0h1m-5 1h1m2 0h1m-4 1h2m1 0h1m-4 1h2m1 0h1m-4 1h4m-4 1h4m-4 1h5"/>
  <path stroke="#fff" d="M28 7h1m-1 1h1m-1 1h1"/>
  <path stroke="#9c9fac" d="M7 8h1M6 9h1m-1 1h1m-1 4h1m17 0h1M6 15h1m17 0h1M8 17h1m13 0h1M4 19h1m6 0h1m7 0h1m-9 1h1m-3 3h1m1 0h1m8 1h1m-10 1h2m8 0h1"/>

  <!--main fill logo-->
  <path stroke="#e5e3e8" d="M15 9h1m4 0h2m-8 1h5m2 0h1m-11 1h11m-10 1h10m-10 1h10m-9 1h8m-7 1h6m-5 1h4m-4 1h3m-3 1h2m-1 1h1m-1 1h1"/>
  <path stroke="#b5b7c1" d="M24 9h1m-1 1h1M6 11h1m17 0h1M6 13h1m17 0h1M7 14h1m-1 2h1m15 0h1M4 18h1m0 2h1m1 1h1m-2 1h1m1 1h1m3 1h1m0 1h3m3 0h2"/>
  <path stroke="#b8b8b8" d="M1 10h1m-1 4h1m-1 1h1m26 0h1M1 16h1m26 0h1m-1 1h1M1 18h1m26 0h1M12 28h3m4 0h3m2 0h2"/>
  <!-- under icon shadow -->
  <path stroke="#6d627f" d="M5 16h1m19 0h1M6 17h1m17 0h1m-2 1h1m-3 1h1M4 21h1m1 3h1m2 0h1m0 2h12"/>
  <path stroke="#a8abb7" d="M19 20h1m0 2h1m-1 1h1"/>
  <path stroke="#8f8f8f" d="M1 22h1m-1 1h1m26 0h1"/>
  <path stroke="#a3a6b2" d="M7 23h1"/>
</svg>