

<svg xmlns="http://www.w3.org/2000/svg" viewBox="0 -0.5 30 30" shape-rendering="crispEdges">
  <path stroke="#525252" d="M2 0h1m1 0h24M1 1h1m26 0h1M6 2h3m3 0h3m3 0h2m1 0h1m7 0h1m-4 1h1m2 0h1M2 4h1m26 0h1m-3 1h1m1 0h1m-3 1h1m1 0h1m-3 1h1m1 0h1m-3 1h1m1 0h1m-3 1h1m1 0h1m-3 1h1m1 0h1m-3 1h1m1 0h1m-3 1h1m1 0h1m-3 1h1m1 0h1M2 14h1m24 0h1m1 0h1m-3 1h1m1 0h1M2 16h1m24 0h1m1 0h1M2 17h1m24 0h1m1 0h1M2 18h1m24 0h1m1 0h1m-3 1h1m1 0h1m-3 1h1m1 0h1m-3 1h1m1 0h1m-3 1h1m1 0h1M2 23h1m24 0h1m1 0h1m-3 1h1m1 0h1m-1 1h1M3 26h1m22 0h1m2 0h1M5 27h6m7 0h3"/>
  <path stroke="#383838" d="M3 0h1M0 2h1m8 0h3m8 0h1m2 0h2M0 3h1M0 4h1M0 5h1M0 6h1M0 7h1M0 8h1M0 9h1m-1 1h1m10 0h1M0 11h1m10 0h1M0 12h1m10 0h1M0 13h1m-1 1h1m10 0h1m3 0h1m2 0h1M0 15h1m10 0h2m1 0h4m1 0h1M0 16h1m10 0h2m1 0h2m3 0h1M0 17h1m10 0h2m1 0h2m3 0h1M0 18h1m10 0h2m1 0h2m3 0h1M0 19h1m10 0h2m1 0h2m3 0h1M0 20h1m10 0h1M0 21h1m-1 1h1m-1 1h1m-1 1h1m-1 1h1m1 0h1m-3 1h1m-1 1h1m24 0h1m3 0h1M1 28h1m26 0h1M2 29h26"/>
  <path stroke="#a3a3a3" d="M2 1h1m24 0h1M3 2h1m22 0h1M2 3h1m24 0h1m-18 7h1m1 0h1m-3 2h1m1 0h1m-3 2h1m8 0h1m-10 1h1m9 0h1m-11 1h1m9 0h1M1 17h1m8 0h1m9 0h1m-11 1h1m9 0h1M1 19h1m8 0h1m9 0h1m7 0h1M1 20h1m8 0h1m9 0h1m7 0h1M1 21h1m26 0h1m-1 1h1M1 24h1m26 0h1m-1 1h1M1 26h2m24 0h2M2 27h2m22 0h2M3 28h1m1 0h7m14 0h1"/>
  <path stroke="#ccc" d="M3 1h4m18 0h2M2 2h1m24 0h1M1 3h1m26 0h1M1 4h1m26 0h1M1 7h1M1 8h1M1 9h1m-1 2h1m-1 1h1m-1 1h1m26 0h1m-1 1h1M1 25h1m2 3h1m10 0h4m3 0h2"/>
  <path stroke="#e0e0e0" d="M7 1h5m1 0h1m9 0h2m3 4h1m-1 1h1m-1 4h1m-1 1h1m-1 1h1M7 20h1m-1 1h2m13 0h1M9 22h12"/>
  <path stroke="#f5f5f5" d="M12 1h1m1 0h9M1 5h1M1 6h1m7 2h12m-1 1h3m-1 1h1"/>
  <path stroke="#7a7a7a" d="M1 2h1m2 0h2m19 0h1m2 0h1M3 3h1m23 1h1M2 5h1M2 6h1M2 7h1M2 8h1"/>
  <path stroke="#666" d="M15 2h3m4 0h1M2 9h1m-1 1h1m-1 1h1m7 0h1m1 0h1M2 12h1m-1 1h1m9 1h1m1 0h1m2 0h1M2 15h1m15 0h1m-3 1h1m1 0h1m-1 1h1m-1 1h1M2 19h1m15 0h1M2 20h1m9 0h1m1 0h2m2 0h2M2 21h1m-1 1h1m-1 2h1m24 1h1M1 27h1m2 0h1m6 0h7m3 0h4m3 0h1M2 28h1m24 0h1"/>
    <!-- bakcground highlight -->
  <path stroke="#bfb5cf" d="M4 3h22M3 5h1m22 0h1m-1 1h1M3 25h1m22 0h1m-2 1h1"/>
  <!--background shadow-->
    <!-- main bakcground medium highlight-->
  <path stroke="#aa9cbf" d="M3 4h3m17 0h4M4 5h1m20 0h1M3 6h1M3 7h1m22 0h1M3 23h1m-1 1h1m22 0h1M4 25h1m20 0h1M4 26h2m17 0h2"/>

  <!-- main bakcground -->
  <path stroke="#9584ae" d="M6 4h17M5 5h20M4 6h22M4 7h5m12 0h5M3 8h4m16 0h4M3 9h3m18 0h3M3 10h3m18 0h3M3 11h3m18 0h3M3 12h3m18 0h3M3 13h3m18 0h3M3 14h3m18 0h3M3 15h3m18 0h3M3 16h3m18 0h3M3 17h3m18 0h3M3 18h3m18 0h3M3 19h3m18 0h3M3 20h3m18 0h3M3 21h3m18 0h3M3 22h3m17 0h4M4 23h3m15 0h5M4 24h5m12 0h5M5 25h20M6 26h17"/>

  <path stroke="#000" d="M9 7h12M7 8h2m12 0h2M6 9h1m16 0h1M6 10h1m16 0h1M6 11h1m16 0h1M6 12h1m16 0h1M6 13h1m16 0h1M6 14h1m16 0h1M6 15h1m16 0h1M6 16h1m16 0h1M6 17h1m16 0h1M6 18h1m16 0h1M6 19h1m16 0h1M6 20h1m16 0h1M6 21h1m16 0h1M7 22h2m12 0h2M9 23h12"/>
  <path stroke="#fff" d="M28 7h1m-1 1h1m-1 1h1"/>
  <path stroke="#f5ebdd" d="M7 9h13M7 10h3m3 0h9M7 11h3m3 0h10M7 12h3m3 0h10M7 13h16M7 14h3m3 0h1m2 0h1m3 0h3M7 15h3m3 0h1m7 0h2M7 16h3m3 0h1m3 0h1m3 0h2M7 17h3m3 0h1m2 0h2m3 0h2M7 18h3m3 0h1m2 0h2m3 0h2M7 19h3m3 0h1m2 0h2m3 0h2M8 20h2m3 0h1m2 0h2m3 0h2M9 21h13"/>
  <path stroke="#b8b8b8" d="M1 10h1m-1 4h1m-1 1h1m26 0h1M1 16h1m26 0h1m-1 1h1M1 18h1m26 0h1M12 28h3m4 0h3m2 0h2"/>
  <path stroke="#8f8f8f" d="M1 22h1m-1 1h1m26 0h1"/>
    <!-- under icon shadow -->
  <path stroke="#6d627f" d="M6 22h1m0 1h2m12 0h1M9 24h12"/>
</svg>