<svg xmlns="http://www.w3.org/2000/svg" viewBox="0 -0.5 30 29" shape-rendering="crispEdges">
  <path stroke="#bb7789" d="M7 0h4M7 1h1m2 0h3m9 0h5M4 2h4m5 0h1m6 0h2m4 0h1M4 3h1m9 0h1m3 0h2m6 0h1M3 4h1m11 0h1m1 0h1m8 0h3M3 5h1m12 0h1m12 0h1M3 6h1m12 0h1m12 0h1M3 7h1m11 0h1m13 0h1M4 8h1m24 0h1M5 9h1m23 0h1M6 10h1m21 0h1M3 11h4m20 0h1M1 12h2m4 0h1m18 0h2M0 13h1m15 0h2m6 0h2M0 14h1m11 0h1m2 0h4m2 0h3M1 15h1m18 0h2m2 0h5M1 16h2m26 0h1M0 17h1m15 0h1m12 0h1M0 18h1m10 0h1m17 0h1M1 19h1m7 0h2m18 0h1M2 20h7m19 0h1M7 21h1m9 0h1m10 0h1M6 22h2m9 0h1m7 0h3M6 23h1m10 0h1m6 0h1M5 24h1m4 0h1m5 0h1m1 0h1m5 0h1M5 25h1m3 0h1m6 0h1m1 0h1m3 0h1M6 26h4m5 0h1m3 0h3M9 27h1m3 0h2m-6 1h4"/>
  <path stroke="#c892a1" d="M8 1h2M8 2h1m1 0h3m9 0h2m1 0h1M5 3h3m1 0h1m1 0h3m6 0h1m1 0h1m1 0h2M4 4h2m2 0h1m1 0h1m1 0h3m3 0h2m1 0h1m1 0h1m1 0h1M4 5h1m6 0h1m1 0h3m1 0h10M4 6h1m7 0h1m1 0h2m1 0h9M4 7h1m8 0h2m1 0h5m1 0h2M5 8h1m6 0h1m3 0h4m1 0h3m4 0h1M6 9h1m8 0h4m1 0h1m2 0h1m3 0h2M7 10h1m7 0h2m1 0h3m5 0h2M7 11h2m6 0h1m9 0h2M3 12h4m1 0h2m13 0h3M1 13h4m1 0h6m6 0h6M1 14h2m7 0h2m7 0h2M2 15h2m14 0h2m2 0h2M3 16h1m5 0h2m1 0h1m7 0h9M1 17h4m6 0h2m2 0h1m1 0h1m4 0h2m1 0h4M1 18h10m1 0h1m2 0h4m5 0h1m1 0h3M2 19h7m2 0h1m3 0h4m6 0h1m1 0h2M9 20h3m4 0h2m5 0h2m1 0h2M8 21h3m1 0h5m7 0h4M8 22h1m5 0h3m1 0h1m4 0h2M7 23h2m1 0h2m3 0h2m1 0h2m3 0h1M6 24h4m1 0h1m2 0h2m3 0h1m2 0h2M6 25h3m1 0h2m1 0h3m3 0h3m-12 1h5m-5 1h3"/>
  <path stroke="#d2a5b1" d="M9 2h1m14 0h1M8 3h1m1 0h1m10 0h1m1 0h1M6 4h2m1 0h1m1 0h1m8 0h1m1 0h1m1 0h1M5 5h6m1 0h1m15 0h1M5 6h1m1 0h1m1 0h3m1 0h1m12 0h2M5 7h2m1 0h1m1 0h3m8 0h1m2 0h3m1 0h1M6 8h2m1 0h3m8 0h1m3 0h2m1 0h1M7 9h2m1 0h2m7 0h1m1 0h2m1 0h3M8 10h2m1 0h2m8 0h5M9 11h4m6 0h5m-14 1h3m6 0h4M5 13h1m6 0h1M3 14h2m1 0h1m1 0h2m-6 1h2m1 0h6m-9 1h1m1 0h1m1 0h1m2 0h1m-7 1h6m9 0h2m2 0h1m-3 1h2m1 0h1m-4 1h1m1 0h1m1 0h1m-9 1h1m2 0h1m3 0h1m-15 1h1m6 0h1m1 0h1m1 0h2M9 22h5m5 0h1m1 0h2M9 23h1m2 0h1m1 0h1m5 0h1m1 0h1m-11 1h2m6 0h2m-10 1h1"/>
  <path stroke="#ddbbc4" d="M27 5h1M6 6h1m1 0h1m19 0h1M7 7h1m1 0h1m17 0h1M8 8h1m17 0h1M9 9h1m0 1h1m13 1h1M5 14h1m1 0h1m-2 1h1m-2 1h1m1 0h1m13 3h1m1 0h1m-4 1h1m1 0h1m-4 1h1m1 0h1m-2 1h1m-8 1h1m7 0h1"/>
  <path stroke="#383838" d="M13 8h2m-1 1h1m-1 1h1m-1 1h1m1 0h1m-3 1h1m2 0h1m-4 1h1m0 2h2m1 1h2m0 2h2m-10 1h1m1 0h1m4 0h1m-8 1h3m4 0h1"/>
  <path stroke="#000" d="M15 8h1m-4 1h2m-1 1h1m3 0h1m-5 1h1m3 0h2m-6 1h1m1 0h2m1 0h1m-6 1h1m1 0h1m-3 1h2m-2 1h2m2 0h1m-5 1h5m-5 1h2m3 0h2m-7 1h2m4 0h1m-7 1h1m6 0h1m-6 1h1"/>
  <path stroke="#bb788a" d="M23 25h1"/>
</svg>