<svg xmlns="http://www.w3.org/2000/svg" viewBox="0 -0.5 31 28" shape-rendering="crispEdges">
<metadata>Made with Pixels to Svg https://codepen.io/shshaw/pen/XbxvNj</metadata>
<path stroke="#000000" d="M21 0h3M10 1h3M19 1h2M24 1h1M9 2h1M13 2h2M18 2h1M25 2h1M7 3h2M15 3h1M17 3h1M25 3h1M6 4h1M8 4h1M15 4h2M26 4h1M5 5h1M15 5h1M26 5h1M4 6h1M15 6h1M26 6h1M4 7h1M27 7h1M4 8h1M16 8h1M28 8h1M5 9h1M14 9h3M28 9h1M3 10h5M13 10h2M27 10h1M2 11h1M14 11h1M17 11h2M26 11h1M1 12h1M14 12h1M18 12h2M25 12h1M1 13h1M14 13h1M16 13h2M19 13h2M25 13h2M1 14h1M14 14h1M16 14h1M27 14h1M1 15h2M14 15h2M28 15h1M0 16h1M14 16h2M18 16h1M29 16h1M0 17h1M14 17h5M30 17h1M1 18h1M14 18h2M19 18h2M22 18h1M30 18h1M2 19h1M6 19h1M14 19h2M20 19h3M29 19h1M3 20h4M13 20h2M16 20h1M19 20h1M21 20h1M29 20h1M5 21h1M14 21h1M16 21h1M19 21h1M28 21h1M5 22h1M25 22h3M6 23h1M17 23h1M25 23h1M7 24h1M16 24h1M18 24h1M24 24h1M8 25h2M15 25h1M19 25h1M22 25h2M10 26h1M14 26h1M20 26h2M11 27h3" />
<path stroke="#cfa0ad" d="M21 1h1M11 2h1M10 3h1M23 3h1M10 4h3M20 4h1M23 4h1M10 5h1M19 5h4M7 6h1M11 6h2M20 6h1M23 6h1M6 7h1M13 7h1M17 7h3M23 7h1M6 8h2M18 8h1M25 8h1M8 9h2M11 9h1M20 9h6M9 10h2M18 10h2M24 10h2M16 11h1M3 12h1M5 12h3M10 12h2M22 12h1M4 13h1M7 13h3M21 13h1M4 14h1M11 14h1M20 14h3M4 15h1M8 15h3M19 15h2M5 16h5M12 16h1M25 16h1M2 17h2M5 17h1M7 17h1M9 17h2M12 17h1M20 17h2M24 17h2M27 17h2M3 18h2M10 18h1M24 18h2M9 19h1M12 19h1M25 19h1M8 20h1M17 20h1M24 20h1M8 21h1M10 21h1M22 21h2M8 22h2M11 22h1M13 22h1M18 22h1M20 22h2M9 23h1M11 23h2M14 23h2M19 23h3M12 24h2M20 24h1" />
<path stroke="#d2a5b1" d="M22 1h1M10 2h1M24 4h1M11 5h3M23 5h3M6 6h1M8 6h3M13 6h1M18 6h2M24 6h1M7 7h3M26 7h1M8 8h2M10 9h1M26 9h1M11 10h1M21 10h3M26 10h1M8 11h5M20 11h4M4 12h1M8 12h2M21 12h1M3 13h1M2 14h2M11 15h2M21 15h3M4 16h1M10 16h2M20 16h2M24 16h1M28 16h1M4 17h1M6 17h1M11 17h1M29 17h1M2 18h1M11 18h2M26 18h3M3 19h1M10 19h2M17 19h1M24 19h1M26 19h2M9 20h1M18 20h1M25 20h3M7 21h1M9 21h1M18 21h1M27 21h1M10 22h1M15 22h1M22 22h2M13 23h1M22 23h3M11 24h1M14 24h1M21 24h2M14 25h1" />
<path stroke="#ddbbc4" d="M23 1h1M23 2h2M9 3h1M24 3h1M7 4h1M6 5h1M5 6h1M21 6h1M5 7h1M10 7h1M22 7h1M10 8h1M26 8h1M27 9h1M2 12h1M2 13h1M5 13h2M2 16h1M22 16h2M29 18h1M28 19h1M10 20h1M11 21h1M7 22h1M12 22h1M8 23h1M10 25h1M12 25h2M20 25h1" />
<path stroke="#c18595" d="M12 2h1M13 3h1M19 3h1M14 4h1M18 4h1M8 5h1M14 6h1M25 6h1M14 7h1M24 8h1M7 9h1M5 11h1M13 13h1M23 13h1M13 14h1M25 14h1M27 15h1M3 16h1M6 18h1M13 18h1M13 19h1M7 20h1M6 21h1M6 22h1M24 22h1M16 23h1" />
<path stroke="#bb7789" d="M19 2h2M14 3h1M18 3h1M17 4h1M9 5h1M16 5h1M15 7h1M25 7h1M14 8h1M17 8h1M17 9h1M8 10h1M16 10h1M6 11h2M13 11h1M19 11h1M17 12h1M24 13h1M17 14h1M26 14h1M3 15h1M13 15h1M16 15h1M13 16h1M13 17h1M7 18h1M16 18h3M21 18h1M23 18h1M7 19h1M19 19h1M22 20h1M20 21h1M24 21h2M17 22h1M10 23h1M18 23h1M9 24h1M15 24h1" />
<path stroke="#c892a1" d="M21 2h2M11 3h2M20 3h3M9 4h1M13 4h1M19 4h1M21 4h2M7 5h1M14 5h1M17 5h2M16 6h2M22 6h1M16 7h1M24 7h1M13 8h1M22 8h2M6 9h1M12 10h1M17 10h1M20 10h1M4 11h1M24 11h2M12 12h2M16 12h1M20 12h1M23 12h2M22 13h1M12 14h1M18 14h2M23 14h2M17 15h2M24 15h3M19 16h1M26 16h2M8 17h1M26 17h1M5 18h1M8 18h2M4 19h2M8 19h1M16 19h1M18 19h1M23 19h1M23 20h1M13 21h1M21 21h1M26 21h1M14 22h1M16 22h1M19 22h1M10 24h1M19 24h1" />
<path stroke="#e4c9d0" d="M25 4h1M5 8h1M27 8h1M3 11h1M1 16h1M1 17h1M8 24h1M21 25h1M11 26h1" />
<path stroke="#cdcdcf" d="M11 7h2M20 7h2M11 8h2M19 8h3M12 9h1M18 9h2M10 13h3M5 14h6M5 15h3M22 17h2M11 20h2M12 21h1" />
<path stroke="#383838" d="M15 8h1M13 9h1M15 10h1M15 11h1M15 12h1M15 13h1M18 13h1M15 14h1M16 16h2M19 17h1M15 20h1M20 20h1M15 21h1M17 21h1" />
<path stroke="#ead6dc" d="M28 20h1M7 23h1M23 24h1M11 25h1M13 26h1" />
<path stroke="#f8f1f3" d="M12 26h1" />
</svg>