
<svg xmlns="http://www.w3.org/2000/svg" viewBox="0 -0.5 183 118" shape-rendering="crispEdges" >
<metadata> 84a5de    Made with Pixels to Svg https://codepen.io/shshaw/pen/XbxvNj</metadata>
<!-- x -->
<!-- x black -->
<path stroke="#383838" d="M175 0h7M174 1h1M182 1h1M174 2h1M176 2h1M180 2h1M182 2h1M174 3h1M177 3h1M179 3h1M182 3h1M174 4h1M178 4h1M182 4h1M174 5h1M177 5h1M179 5h1M182 5h1M174 6h1M176 6h1M180 6h1M182 6h1M174 7h1M182 7h1M175 8h7" />
<!-- x main fill -->
<path stroke="#c0a5c5" d="M175 1h3M175 2h1M177 2h3M175 3h2M178 3h1M180 3h1M176 4h1M179 4h2M176 5h1M180 5h2M177 6h3M181 6h1M180 7h2" />
<!-- x shadow -->
<path stroke="#bd7674" d="M175 4h1M177 4h1M175 5h1M178 5h1M175 6h1M175 7h5" />
<!-- x highlight -->
<path stroke="#eb9993" d="M178 1h4M181 2h1M181 3h1M181 4h1" />
</svg>